<svg xmlns="http://www.w3.org/2000/svg" width="512" height="512" fill="none"><g clip-path="url(#a)"><path fill="url(#b)" d="M256 512c141.385 0 256-114.615 256-256S397.385 0 256 0 0 114.615 0 256s114.615 256 256 256"/><path fill="#fff" d="M412 175.1a34.7 34.7 0 0 1-10.19 24.6L240 361.5a34.79 34.79 0 0 1-37.922 7.545 34.8 34.8 0 0 1-11.288-7.545l-80.61-80.6a34.8 34.8 0 0 1-10.532-24.704 34.8 34.8 0 0 1 35.038-35.038 34.8 34.8 0 0 1 24.704 10.532l56 56L352.6 150.5a34.8 34.8 0 0 1 17.815-9.517 34.805 34.805 0 0 1 35.716 14.791A34.8 34.8 0 0 1 412 175.1"/></g><defs><linearGradient id="b" x1="36.955" x2="497.506" y1="23.485" y2="382.962" gradientUnits="userSpaceOnUse"><stop stop-color="#FF6C06"/><stop offset="1" stop-color="#FFBE00"/></linearGradient><clipPath id="a"><path fill="#fff" d="M0 0h512v512H0z"/></clipPath></defs></svg>