<svg xmlns="http://www.w3.org/2000/svg" width="21" height="21" fill="none"><g clip-path="url(#a)"><path fill="#94A3B8" d="M10.5 0C4.701 0 0 4.701 0 10.5c0 4.924 3.39 9.056 7.964 10.19V13.71H5.799V10.5h2.165V9.117c0-3.573 1.617-5.23 5.126-5.23.665 0 1.813.13 2.282.26v2.91c-.247-.027-.678-.04-1.213-.04-1.721 0-2.386.653-2.386 2.348V10.5h3.43l-.59 3.209h-2.84v7.214C16.972 20.295 21 15.868 21 10.5 21 4.701 16.3 0 10.5 0"/></g><defs><clipPath id="a"><path fill="#fff" d="M0 0h21v21H0z"/></clipPath></defs></svg>