<svg xmlns="http://www.w3.org/2000/svg" width="21" height="21" fill="none"><g fill="#94A3B8" clip-path="url(#a)"><path d="M10.5 1.89c2.806 0 3.138.013 4.241.062 1.025.045 1.58.218 1.948.361.488.189.841.419 1.206.784.37.369.595.717.784 1.206.143.369.315.926.36 1.948.05 1.107.062 1.44.062 4.24 0 2.806-.012 3.139-.061 4.242-.046 1.025-.218 1.579-.361 1.948-.19.488-.419.84-.784 1.206a3.2 3.2 0 0 1-1.206.783c-.369.144-.927.316-1.948.361-1.107.05-1.44.062-4.241.062-2.805 0-3.138-.012-4.241-.062-1.025-.045-1.58-.217-1.948-.36a3.25 3.25 0 0 1-1.206-.784 3.2 3.2 0 0 1-.784-1.206c-.143-.37-.315-.927-.36-1.948-.05-1.108-.062-1.44-.062-4.241 0-2.806.012-3.138.062-4.241.045-1.026.217-1.58.36-1.948.19-.489.419-.841.784-1.206a3.2 3.2 0 0 1 1.206-.784c.369-.143.927-.316 1.948-.36 1.103-.05 1.436-.062 4.241-.062m0-1.89C7.65 0 7.293.012 6.173.062 5.057.11 4.29.292 3.626.55c-.693.27-1.28.627-1.862 1.214A5.15 5.15 0 0 0 .55 3.622C.29 4.29.11 5.053.062 6.169.012 7.293 0 7.649 0 10.5c0 2.85.012 3.207.062 4.327.049 1.116.23 1.883.488 2.547.27.693.627 1.28 1.214 1.862a5.1 5.1 0 0 0 1.858 1.21c.668.259 1.431.44 2.547.488 1.12.05 1.476.062 4.327.062s3.207-.012 4.327-.062c1.116-.049 1.883-.23 2.547-.488a5.1 5.1 0 0 0 1.858-1.21 5.1 5.1 0 0 0 1.21-1.858c.259-.668.439-1.431.488-2.547.05-1.12.062-1.476.062-4.327s-.013-3.207-.062-4.327c-.049-1.116-.23-1.883-.488-2.547a4.9 4.9 0 0 0-1.202-1.866 5.1 5.1 0 0 0-1.858-1.21c-.668-.259-1.431-.44-2.547-.488C13.707.012 13.351 0 10.5 0"/><path d="M10.503 5.106A5.395 5.395 0 0 0 5.109 10.5a5.395 5.395 0 0 0 5.394 5.394 5.395 5.395 0 0 0 5.393-5.394 5.395 5.395 0 0 0-5.393-5.394m0 8.893A3.5 3.5 0 1 1 10.504 7 3.5 3.5 0 0 1 10.503 14M17.362 4.893a1.26 1.26 0 1 1-2.519 0 1.26 1.26 0 0 1 2.52 0"/></g><defs><clipPath id="a"><path fill="#fff" d="M0 0h21v21H0z"/></clipPath></defs></svg>